<?xml version="1.0" encoding="utf-8"?>
<svg id="master-artboard" viewBox="0 0 454.65704345703125 458.8770446777344" xmlns="http://www.w3.org/2000/svg" width="454.65704345703125px" height="458.8770446777344px" version="1.1" style="shape-rendering:geometricPrecision; text-rendering:geometricPrecision; image-rendering:optimizeQuality; fill-rule:evenodd; clip-rule:evenodd"><rect id="ee-background" x="0" y="0" width="454.65704345703125" height="458.8770446777344" style="fill: white; fill-opacity: 0; pointer-events: none;"/>
 
 <metadata id="CorelCorpID_0Corel-Layer"/>
<g transform="matrix(30.624996185302734, 0, 0, 30.624996185302734, -261.59471893310547, -262.7148666381836)"><path fill="#FFFFFF" d="M9.293,22.707C9.488,22.902,9.744,23,10,23s0.512-0.098,0.707-0.293L16,17.414l5.293,5.293C21.488,22.902,21.744,23,22,23&#10;&#9;s0.512-0.098,0.707-0.293c0.391-0.391,0.391-1.023,0-1.414L17.414,16l5.293-5.293c0.391-0.391,0.391-1.023,0-1.414&#10;&#9;s-1.023-0.391-1.414,0L16,14.586l-5.293-5.293c-0.391-0.391-1.023-0.391-1.414,0s-0.391,1.023,0,1.414L14.586,16l-5.293,5.293&#10;&#9;C8.902,21.684,8.902,22.316,9.293,22.707z" style="fill: rgb(217, 90, 76);"/></g></svg>